<svg xmlns="http://www.w3.org/2000/svg" viewBox="0 0 1280 44"><defs><style>.cls-1{fill:none;}.cls-1,.cls-2,.cls-3{stroke:#58595b;stroke-width:0.5px;}.cls-1,.cls-3{stroke-linecap:round;stroke-linejoin:round;}.cls-2,.cls-3{fill:#fff;}.cls-2{stroke-miterlimit:10;}</style></defs><title>Artboard 4</title><g id="art"><polyline class="cls-1" points="17.59 27.96 17.73 35.17 17.84 42.29"/><polyline class="cls-1" points="14.64 27.96 14.78 35.17 14.88 42.29"/><polyline class="cls-1" points="49.56 27.96 49.7 35.17 49.81 42.29"/><polyline class="cls-1" points="46.62 27.96 46.76 35.17 46.86 42.29"/><polyline class="cls-1" points="81.54 27.96 81.68 35.17 81.78 42.29"/><polyline class="cls-1" points="78.59 27.96 78.73 35.17 78.83 42.29"/><polyline class="cls-1" points="113.51 27.96 113.65 35.17 113.75 42.29"/><polyline class="cls-1" points="110.56 27.96 110.7 35.17 110.8 42.29"/><polyline class="cls-1" points="145.48 27.96 145.62 35.17 145.72 42.29"/><polyline class="cls-1" points="142.53 27.96 142.67 35.17 142.77 42.29"/><polyline class="cls-1" points="177.45 27.96 177.59 35.17 177.69 42.29"/><polyline class="cls-1" points="174.5 27.96 174.64 35.17 174.74 42.29"/><polyline class="cls-1" points="209.42 27.96 209.56 35.17 209.66 42.29"/><polyline class="cls-1" points="206.47 27.96 206.61 35.17 206.71 42.29"/><polyline class="cls-1" points="241.39 27.96 241.53 35.17 241.63 42.29"/><polyline class="cls-1" points="238.44 27.96 238.58 35.17 238.68 42.29"/><polyline class="cls-1" points="273.36 27.96 273.5 35.17 273.61 42.29"/><polyline class="cls-1" points="270.41 27.96 270.55 35.17 270.65 42.29"/><polyline class="cls-1" points="305.34 27.96 305.48 35.17 305.58 42.29"/><polyline class="cls-1" points="302.38 27.96 302.52 35.17 302.63 42.29"/><polyline class="cls-1" points="21.79 28.67 21.11 26.09 19.69 20.69 17.94 15.69"/><polyline class="cls-1" points="54.87 27.23 53.98 24.93 52.09 20.11 49.96 15.7"/><polyline class="cls-1" points="87.96 25.79 86.84 23.77 84.5 19.53 81.97 15.7"/><polyline class="cls-1" points="121.05 24.35 119.71 22.61 116.91 18.95 113.98 15.7"/><polyline class="cls-1" points="154.14 22.91 152.58 21.44 149.31 18.37 145.99 15.71"/><polyline class="cls-1" points="187.23 21.47 185.45 20.28 181.72 17.79 178 15.71"/><polyline class="cls-1" points="220.32 20.03 218.31 19.12 214.12 17.21 210.01 15.71"/><polyline class="cls-1" points="253.41 18.59 251.18 17.96 246.53 16.63 242.03 15.71"/><polyline class="cls-1" points="286.49 17.16 284.05 16.8 278.93 16.05 274.04 15.72"/><polyline class="cls-1" points="319.58 15.72 316.92 15.63 311.34 15.46 306.05 15.72"/><polyline class="cls-1" points="10.12 28.67 10.8 26.09 12.22 20.69 13.96 15.69"/><polyline class="cls-1" points="41.04 27.16 41.94 24.87 43.82 20.07 45.96 15.67"/><polyline class="cls-1" points="71.97 25.66 73.08 23.65 75.43 19.45 77.96 15.65"/><polyline class="cls-1" points="102.89 24.15 104.23 22.43 107.03 18.82 109.96 15.62"/><polyline class="cls-1" points="133.81 22.65 135.37 21.21 138.64 18.2 141.95 15.6"/><polyline class="cls-1" points="164.73 21.14 166.51 19.99 170.25 17.58 173.95 15.58"/><polyline class="cls-1" points="195.65 19.64 197.66 18.77 201.85 16.96 205.95 15.55"/><polyline class="cls-1" points="226.57 18.13 228.8 17.55 233.46 16.33 237.95 15.53"/><polyline class="cls-1" points="257.5 16.63 259.94 16.33 265.06 15.71 269.95 15.51"/><polyline class="cls-1" points="288.42 15.12 291.08 15.11 296.67 15.09 301.94 15.49"/><path class="cls-2" d="M16.05,14.62c.94,0,1.65.93,2.56,2.87C19.8,20,20.21,24.8,18,27.33a2.62,2.62,0,0,1-3.83,0c-2.91-2.5-1.81-7.8-.81-9.92S15.09,14.62,16.05,14.62Z"/><line class="cls-3" x1="15.8" y1="23.73" x2="16.24" y2="23.73"/><path class="cls-2" d="M16.32,8.64a2.62,2.62,0,0,1,2.16,1A3.91,3.91,0,0,1,18.6,13a2.73,2.73,0,0,1-2.28,1.56,3,3,0,0,1-2.78-1.47A3,3,0,0,1,14,9.46,2.75,2.75,0,0,1,16.32,8.64Z"/><path class="cls-2" d="M15.93,11.37a.79.79,0,0,0-.65.31,1.17,1.17,0,0,0,0,1,.82.82,0,0,0,.68.47.89.89,0,0,0,.83-.44.91.91,0,0,0-.13-1.11A.82.82,0,0,0,15.93,11.37Z"/><path class="cls-2" d="M48,14.62c.94,0,1.65.88,2.56,2.82C51.79,20,52.22,24.8,50,27.33a2.65,2.65,0,0,1-3.86,0c-2.91-2.5-1.79-7.85-.79-10S47.08,14.62,48,14.62Z"/><line class="cls-3" x1="47.79" y1="23.73" x2="48.23" y2="23.73"/><path class="cls-2" d="M48.3,8.64a2.62,2.62,0,0,1,2.16,1A3.91,3.91,0,0,1,50.58,13a2.73,2.73,0,0,1-2.28,1.56,3,3,0,0,1-2.78-1.47A3,3,0,0,1,46,9.46,2.75,2.75,0,0,1,48.3,8.64Z"/><path class="cls-2" d="M47.92,11.37a.79.79,0,0,0-.65.31,1.17,1.17,0,0,0,0,1,.82.82,0,0,0,.68.47.89.89,0,0,0,.83-.44.91.91,0,0,0-.13-1.11A.82.82,0,0,0,47.92,11.37Z"/><path class="cls-2" d="M80,14.62c.94,0,1.65.83,2.56,2.77,1.19,2.53,1.63,7.4-.55,9.94a2.69,2.69,0,0,1-3.89,0c-2.91-2.5-1.78-7.89-.78-10S79.07,14.62,80,14.62Z"/><line class="cls-3" x1="79.77" y1="23.73" x2="80.21" y2="23.73"/><path class="cls-2" d="M80.29,8.64a2.62,2.62,0,0,1,2.16,1A3.91,3.91,0,0,1,82.57,13a2.73,2.73,0,0,1-2.28,1.56,3,3,0,0,1-2.78-1.47,3,3,0,0,1,.44-3.69A2.75,2.75,0,0,1,80.29,8.64Z"/><path class="cls-2" d="M79.91,11.37a.79.79,0,0,0-.65.31,1.17,1.17,0,0,0,0,1,.82.82,0,0,0,.68.47.89.89,0,0,0,.83-.44.91.91,0,0,0-.13-1.11A.82.82,0,0,0,79.91,11.37Z"/><path class="cls-2" d="M112,14.62c.94,0,1.65.79,2.56,2.73,1.19,2.53,1.65,7.45-.54,10a2.73,2.73,0,0,1-3.93,0c-2.91-2.5-1.76-7.94-.76-10.07S111.06,14.62,112,14.62Z"/><line class="cls-3" x1="111.76" y1="23.73" x2="112.2" y2="23.73"/><path class="cls-2" d="M112.28,8.64a2.62,2.62,0,0,1,2.16,1,3.91,3.91,0,0,1,.13,3.37,2.73,2.73,0,0,1-2.28,1.56,3,3,0,0,1-2.78-1.47,3,3,0,0,1,.44-3.69A2.75,2.75,0,0,1,112.28,8.64Z"/><path class="cls-2" d="M111.89,11.37a.79.79,0,0,0-.65.31,1.17,1.17,0,0,0,0,1,.82.82,0,0,0,.68.47.89.89,0,0,0,.83-.44.91.91,0,0,0-.13-1.11A.82.82,0,0,0,111.89,11.37Z"/><path class="cls-2" d="M144,14.62c.94,0,1.65.74,2.56,2.68,1.19,2.53,1.67,7.5-.52,10a2.77,2.77,0,0,1-4,0c-2.91-2.5-1.74-8-.74-10.11S143,14.62,144,14.62Z"/><line class="cls-3" x1="143.75" y1="23.73" x2="144.19" y2="23.73"/><path class="cls-2" d="M144.26,8.64a2.62,2.62,0,0,1,2.16,1,3.91,3.91,0,0,1,.13,3.37,2.73,2.73,0,0,1-2.28,1.56,3,3,0,0,1-2.78-1.47,3,3,0,0,1,.44-3.69A2.75,2.75,0,0,1,144.26,8.64Z"/><path class="cls-2" d="M143.88,11.37a.79.79,0,0,0-.65.31,1.17,1.17,0,0,0,0,1,.82.82,0,0,0,.68.47.89.89,0,0,0,.83-.44.91.91,0,0,0-.13-1.11A.82.82,0,0,0,143.88,11.37Z"/><path class="cls-2" d="M176,14.62c.94,0,1.65.69,2.56,2.63,1.19,2.53,1.68,7.55-.51,10.08a2.8,2.8,0,0,1-4,0c-2.91-2.5-1.73-8-.73-10.16S175,14.62,176,14.62Z"/><line class="cls-3" x1="175.74" y1="23.73" x2="176.18" y2="23.73"/><path class="cls-2" d="M176.25,8.64a2.62,2.62,0,0,1,2.16,1,3.91,3.91,0,0,1,.13,3.37,2.73,2.73,0,0,1-2.28,1.56,3,3,0,0,1-2.78-1.47,3,3,0,0,1,.44-3.69A2.75,2.75,0,0,1,176.25,8.64Z"/><path class="cls-2" d="M175.87,11.37a.79.79,0,0,0-.65.31,1.17,1.17,0,0,0,0,1,.82.82,0,0,0,.68.47.89.89,0,0,0,.83-.44.91.91,0,0,0-.13-1.11A.82.82,0,0,0,175.87,11.37Z"/><path class="cls-2" d="M208,14.62c.94,0,1.65.64,2.56,2.58,1.19,2.53,1.7,7.6-.49,10.13a2.84,2.84,0,0,1-4,0c-2.91-2.5-1.71-8.09-.71-10.21S207,14.62,208,14.62Z"/><line class="cls-3" x1="207.72" y1="23.73" x2="208.16" y2="23.73"/><path class="cls-2" d="M208.24,8.64a2.62,2.62,0,0,1,2.16,1,3.91,3.91,0,0,1,.13,3.37,2.73,2.73,0,0,1-2.28,1.56,3,3,0,0,1-2.78-1.47,3,3,0,0,1,.44-3.69A2.75,2.75,0,0,1,208.24,8.64Z"/><path class="cls-2" d="M207.86,11.37a.79.79,0,0,0-.65.31,1.17,1.17,0,0,0,0,1,.82.82,0,0,0,.68.47.89.89,0,0,0,.83-.44.91.91,0,0,0-.13-1.11A.82.82,0,0,0,207.86,11.37Z"/><path class="cls-2" d="M240,14.62c.94,0,1.65.59,2.56,2.53,1.19,2.53,1.71,7.64-.47,10.18a2.88,2.88,0,0,1-4.05,0c-2.91-2.5-1.7-8.13-.7-10.26S239,14.62,240,14.62Z"/><line class="cls-3" x1="239.71" y1="23.73" x2="240.15" y2="23.73"/><path class="cls-2" d="M240.23,8.64a2.62,2.62,0,0,1,2.16,1,3.91,3.91,0,0,1,.13,3.37,2.73,2.73,0,0,1-2.28,1.56,3,3,0,0,1-2.78-1.47,3,3,0,0,1,.44-3.69A2.75,2.75,0,0,1,240.23,8.64Z"/><path class="cls-2" d="M239.84,11.37a.79.79,0,0,0-.65.31,1.17,1.17,0,0,0,0,1,.82.82,0,0,0,.68.47.89.89,0,0,0,.83-.44.91.91,0,0,0-.13-1.11A.82.82,0,0,0,239.84,11.37Z"/><path class="cls-2" d="M272,14.62c.94,0,1.65.55,2.56,2.49,1.19,2.53,1.73,7.69-.46,10.22a2.92,2.92,0,0,1-4.09,0c-2.91-2.5-1.68-8.18-.68-10.31S271,14.62,272,14.62Z"/><line class="cls-3" x1="271.7" y1="23.73" x2="272.14" y2="23.73"/><path class="cls-2" d="M272.21,8.64a2.62,2.62,0,0,1,2.16,1,3.91,3.91,0,0,1,.13,3.37,2.73,2.73,0,0,1-2.28,1.56,3,3,0,0,1-2.78-1.47,3,3,0,0,1,.44-3.69A2.75,2.75,0,0,1,272.21,8.64Z"/><path class="cls-2" d="M271.83,11.37a.79.79,0,0,0-.65.31,1.17,1.17,0,0,0,0,1,.82.82,0,0,0,.68.47.89.89,0,0,0,.83-.44.91.91,0,0,0-.13-1.11A.82.82,0,0,0,271.83,11.37Z"/><path class="cls-2" d="M303.94,14.62c.94,0,1.65.5,2.56,2.44,1.19,2.53,1.75,7.74-.44,10.27a3,3,0,0,1-4.12,0c-2.91-2.5-1.66-8.23-.66-10.35S303,14.62,303.94,14.62Z"/><line class="cls-3" x1="303.69" y1="23.73" x2="304.13" y2="23.73"/><path class="cls-2" d="M304.2,8.64a2.62,2.62,0,0,1,2.16,1,3.91,3.91,0,0,1,.13,3.37,2.73,2.73,0,0,1-2.28,1.56,3,3,0,0,1-2.78-1.47,3,3,0,0,1,.44-3.69A2.75,2.75,0,0,1,304.2,8.64Z"/><path class="cls-2" d="M303.82,11.37a.79.79,0,0,0-.65.31,1.17,1.17,0,0,0,0,1,.82.82,0,0,0,.68.47.89.89,0,0,0,.83-.44.91.91,0,0,0-.13-1.11A.82.82,0,0,0,303.82,11.37Z"/><polyline class="cls-1" points="351.34 13.84 348.72 14.33 343.23 15.35 337.96 15.9"/><polyline class="cls-1" points="382.14 12.66 379.77 13.39 374.81 14.91 370.02 15.98"/><polyline class="cls-1" points="412.94 11.48 410.83 12.45 406.4 14.48 402.07 16.06"/><polyline class="cls-1" points="443.74 10.31 441.88 11.51 437.99 14.04 434.12 16.14"/><polyline class="cls-1" points="474.55 9.13 472.94 10.57 469.58 13.6 466.18 16.21"/><polyline class="cls-1" points="505.35 7.95 504 9.63 501.17 13.16 498.23 16.29"/><polyline class="cls-1" points="536.15 6.77 535.05 8.7 532.75 12.73 530.28 16.37"/><polyline class="cls-1" points="566.95 5.59 566.11 7.75 564.34 12.29 562.33 16.44"/><polyline class="cls-1" points="597.75 4.41 597.16 6.82 595.93 11.85 594.38 16.52"/><polyline class="cls-1" points="628.55 3.23 628.22 5.88 627.52 11.42 626.44 16.6"/><polyline class="cls-1" points="320.4 13.82 323.02 14.3 328.51 15.31 333.78 15.85"/><polyline class="cls-1" points="353.55 12.65 355.92 13.37 360.89 14.88 365.69 15.93"/><polyline class="cls-1" points="386.69 11.47 388.82 12.43 393.26 14.45 397.61 16.01"/><polyline class="cls-1" points="419.84 10.3 421.71 11.5 425.63 14.01 429.52 16.1"/><polyline class="cls-1" points="452.99 9.12 454.61 10.56 458 13.58 461.43 16.18"/><polyline class="cls-1" points="486.13 7.95 487.5 9.63 490.37 13.15 493.35 16.26"/><polyline class="cls-1" points="519.28 6.77 520.4 8.69 522.74 12.71 525.26 16.34"/><polyline class="cls-1" points="552.43 5.59 553.3 7.75 555.12 12.28 557.17 16.42"/><polyline class="cls-1" points="585.57 4.42 586.19 6.82 587.49 11.85 589.09 16.5"/><polyline class="cls-1" points="618.72 3.24 619.09 5.88 619.86 11.41 621 16.58"/><polyline class="cls-1" points="337.21 27.96 337.35 35.17 337.45 42.29"/><polyline class="cls-1" points="334.26 27.96 334.4 35.17 334.5 42.29"/><polyline class="cls-1" points="369.23 27.96 369.37 35.17 369.47 42.29"/><polyline class="cls-1" points="366.28 27.96 366.42 35.17 366.52 42.29"/><polyline class="cls-1" points="401.25 27.96 401.39 35.17 401.49 42.29"/><polyline class="cls-1" points="398.3 27.96 398.44 35.17 398.54 42.29"/><polyline class="cls-1" points="433.26 27.96 433.4 35.17 433.5 42.29"/><polyline class="cls-1" points="430.31 27.96 430.45 35.17 430.56 42.29"/><polyline class="cls-1" points="465.28 27.96 465.42 35.17 465.52 42.29"/><polyline class="cls-1" points="462.33 27.96 462.47 35.17 462.57 42.29"/><polyline class="cls-1" points="497.3 27.96 497.44 35.17 497.54 42.29"/><polyline class="cls-1" points="494.35 27.96 494.49 35.17 494.59 42.29"/><polyline class="cls-1" points="529.32 27.96 529.46 35.17 529.56 42.29"/><polyline class="cls-1" points="526.37 27.96 526.51 35.17 526.61 42.29"/><polyline class="cls-1" points="561.34 27.96 561.47 35.17 561.58 42.29"/><polyline class="cls-1" points="558.38 27.96 558.52 35.17 558.63 42.29"/><polyline class="cls-1" points="593.35 27.96 593.49 35.17 593.59 42.29"/><polyline class="cls-1" points="590.4 27.96 590.54 35.17 590.64 42.29"/><polyline class="cls-1" points="625.37 27.96 625.51 35.17 625.61 42.29"/><polyline class="cls-1" points="622.42 27.96 622.56 35.17 622.66 42.29"/><path class="cls-2" d="M335.81,14.62c.94,0,1.65.5,2.56,2.44,1.19,2.53,1.75,7.74-.44,10.27a3,3,0,0,1-4.12,0c-2.91-2.5-1.66-8.23-.66-10.35S334.85,14.62,335.81,14.62Z"/><line class="cls-3" x1="335.56" y1="23.73" x2="336" y2="23.73"/><path class="cls-2" d="M336.08,8.64a2.62,2.62,0,0,1,2.16,1,3.91,3.91,0,0,1,.13,3.37,2.73,2.73,0,0,1-2.28,1.56,3,3,0,0,1-2.78-1.47,3,3,0,0,1,.44-3.69A2.75,2.75,0,0,1,336.08,8.64Z"/><path class="cls-2" d="M335.69,11.37a.79.79,0,0,0-.65.31,1.17,1.17,0,0,0,0,1,.82.82,0,0,0,.68.47.89.89,0,0,0,.83-.44.91.91,0,0,0-.13-1.11A.82.82,0,0,0,335.69,11.37Z"/><path class="cls-2" d="M367.81,14.62c.94,0,1.67.47,2.58,2.41,1.19,2.53,1.75,7.77-.44,10.3a3,3,0,0,1-4.15,0c-2.91-2.5-1.66-8.26-.66-10.39S366.86,14.62,367.81,14.62Z"/><line class="cls-3" x1="367.56" y1="23.73" x2="368" y2="23.73"/><path class="cls-2" d="M368.08,8.64a2.62,2.62,0,0,1,2.16,1,3.91,3.91,0,0,1,.13,3.37,2.73,2.73,0,0,1-2.28,1.56,3,3,0,0,1-2.78-1.47,3,3,0,0,1,.44-3.69A2.75,2.75,0,0,1,368.08,8.64Z"/><path class="cls-2" d="M367.69,11.37a.79.79,0,0,0-.65.31,1.17,1.17,0,0,0,0,1,.82.82,0,0,0,.68.47.89.89,0,0,0,.83-.44.91.91,0,0,0-.13-1.11A.82.82,0,0,0,367.69,11.37Z"/><path class="cls-2" d="M399.82,14.62c.94,0,1.68.43,2.59,2.37,1.19,2.53,1.75,7.8-.44,10.34a3,3,0,0,1-4.18,0c-2.91-2.5-1.66-8.29-.66-10.42S398.86,14.62,399.82,14.62Z"/><line class="cls-3" x1="399.56" y1="23.73" x2="400" y2="23.73"/><path class="cls-2" d="M400.08,8.64a2.62,2.62,0,0,1,2.16,1,3.91,3.91,0,0,1,.13,3.37,2.73,2.73,0,0,1-2.28,1.56,3,3,0,0,1-2.78-1.47,3,3,0,0,1,.44-3.69A2.75,2.75,0,0,1,400.08,8.64Z"/><path class="cls-2" d="M399.7,11.37a.79.79,0,0,0-.65.31,1.17,1.17,0,0,0,0,1,.82.82,0,0,0,.68.47.89.89,0,0,0,.83-.44.91.91,0,0,0-.13-1.11A.82.82,0,0,0,399.7,11.37Z"/><path class="cls-2" d="M431.82,14.62c.94,0,1.7.4,2.61,2.34,1.19,2.53,1.75,7.84-.44,10.37a3.08,3.08,0,0,1-4.21,0c-2.91-2.5-1.66-8.33-.66-10.45S430.86,14.62,431.82,14.62Z"/><line class="cls-3" x1="431.57" y1="23.73" x2="432.01" y2="23.73"/><path class="cls-2" d="M432.08,8.64a2.62,2.62,0,0,1,2.16,1,3.91,3.91,0,0,1,.13,3.37,2.73,2.73,0,0,1-2.28,1.56,3,3,0,0,1-2.78-1.47,3,3,0,0,1,.44-3.69A2.75,2.75,0,0,1,432.08,8.64Z"/><path class="cls-2" d="M431.7,11.37a.79.79,0,0,0-.65.31,1.17,1.17,0,0,0,0,1,.82.82,0,0,0,.68.47.89.89,0,0,0,.83-.44.91.91,0,0,0-.13-1.11A.82.82,0,0,0,431.7,11.37Z"/><path class="cls-2" d="M463.82,14.62c.94,0,1.71.37,2.62,2.31,1.19,2.53,1.75,7.87-.44,10.4a3.12,3.12,0,0,1-4.25,0c-2.91-2.5-1.66-8.36-.66-10.48S462.86,14.62,463.82,14.62Z"/><line class="cls-3" x1="463.57" y1="23.73" x2="464.01" y2="23.73"/><path class="cls-2" d="M464.08,8.64a2.62,2.62,0,0,1,2.16,1,3.91,3.91,0,0,1,.13,3.37,2.73,2.73,0,0,1-2.28,1.56,3,3,0,0,1-2.78-1.47,3,3,0,0,1,.44-3.69A2.75,2.75,0,0,1,464.08,8.64Z"/><path class="cls-2" d="M463.7,11.37a.79.79,0,0,0-.65.31,1.17,1.17,0,0,0,0,1,.82.82,0,0,0,.68.47.89.89,0,0,0,.83-.44.91.91,0,0,0-.13-1.11A.82.82,0,0,0,463.7,11.37Z"/><path class="cls-2" d="M495.82,14.62c.94,0,1.73.34,2.64,2.28,1.19,2.53,1.75,7.9-.44,10.43a3.16,3.16,0,0,1-4.28,0c-2.91-2.5-1.66-8.39-.66-10.51S494.86,14.62,495.82,14.62Z"/><line class="cls-3" x1="495.57" y1="23.73" x2="496.01" y2="23.73"/><path class="cls-2" d="M496.08,8.64a2.62,2.62,0,0,1,2.16,1,3.91,3.91,0,0,1,.13,3.37,2.73,2.73,0,0,1-2.28,1.56,3,3,0,0,1-2.78-1.47,3,3,0,0,1,.44-3.69A2.75,2.75,0,0,1,496.08,8.64Z"/><path class="cls-2" d="M495.7,11.37a.79.79,0,0,0-.65.31,1.17,1.17,0,0,0,0,1,.82.82,0,0,0,.68.47.89.89,0,0,0,.83-.44.91.91,0,0,0-.13-1.11A.82.82,0,0,0,495.7,11.37Z"/><path class="cls-2" d="M527.82,14.62c.94,0,1.75.31,2.66,2.25,1.19,2.53,1.75,7.93-.44,10.46a3.2,3.2,0,0,1-4.31,0c-2.91-2.5-1.66-8.42-.66-10.55S526.86,14.62,527.82,14.62Z"/><line class="cls-3" x1="527.57" y1="23.73" x2="528.01" y2="23.73"/><path class="cls-2" d="M528.09,8.64a2.62,2.62,0,0,1,2.16,1,3.91,3.91,0,0,1,.13,3.37,2.73,2.73,0,0,1-2.28,1.56,3,3,0,0,1-2.78-1.47,3,3,0,0,1,.44-3.69A2.75,2.75,0,0,1,528.09,8.64Z"/><path class="cls-2" d="M527.7,11.37a.79.79,0,0,0-.65.31,1.17,1.17,0,0,0,0,1,.82.82,0,0,0,.68.47.89.89,0,0,0,.83-.44.91.91,0,0,0-.13-1.11A.82.82,0,0,0,527.7,11.37Z"/><path class="cls-2" d="M559.82,14.62c.94,0,1.76.27,2.67,2.21,1.19,2.53,1.75,8-.44,10.5a3.25,3.25,0,0,1-4.34,0c-2.91-2.5-1.66-8.45-.66-10.58S558.87,14.62,559.82,14.62Z"/><line class="cls-3" x1="559.57" y1="23.73" x2="560.01" y2="23.73"/><path class="cls-2" d="M560.09,8.64a2.62,2.62,0,0,1,2.16,1,3.91,3.91,0,0,1,.13,3.37,2.73,2.73,0,0,1-2.28,1.56,3,3,0,0,1-2.78-1.47,3,3,0,0,1,.44-3.69A2.75,2.75,0,0,1,560.09,8.64Z"/><path class="cls-2" d="M559.7,11.37a.79.79,0,0,0-.65.31,1.17,1.17,0,0,0,0,1,.82.82,0,0,0,.68.47.89.89,0,0,0,.83-.44.91.91,0,0,0-.13-1.11A.82.82,0,0,0,559.7,11.37Z"/><path class="cls-2" d="M591.83,14.62c.94,0,1.78.24,2.69,2.18,1.19,2.53,1.75,8-.44,10.53-1,1.14-3.12,1.08-4.37,0-2.91-2.5-1.66-8.49-.66-10.61S590.87,14.62,591.83,14.62Z"/><line class="cls-3" x1="591.57" y1="23.73" x2="592.01" y2="23.73"/><path class="cls-2" d="M592.09,8.64a2.62,2.62,0,0,1,2.16,1,3.91,3.91,0,0,1,.13,3.37,2.73,2.73,0,0,1-2.28,1.56,3,3,0,0,1-2.78-1.47,3,3,0,0,1,.44-3.69A2.75,2.75,0,0,1,592.09,8.64Z"/><path class="cls-2" d="M591.71,11.37a.79.79,0,0,0-.65.31,1.17,1.17,0,0,0,0,1,.82.82,0,0,0,.68.47.89.89,0,0,0,.83-.44.91.91,0,0,0-.13-1.11A.82.82,0,0,0,591.71,11.37Z"/><path class="cls-2" d="M623.83,14.62c.94,0,1.79.21,2.7,2.15,1.19,2.53,1.75,8-.44,10.56-1,1.14-3.15,1.08-4.41,0-2.91-2.5-1.66-8.52-.66-10.64S622.87,14.62,623.83,14.62Z"/><line class="cls-3" x1="623.58" y1="23.73" x2="624.02" y2="23.73"/><path class="cls-2" d="M624.09,8.64a2.62,2.62,0,0,1,2.16,1,3.91,3.91,0,0,1,.13,3.37,2.73,2.73,0,0,1-2.28,1.56,3,3,0,0,1-2.78-1.47,3,3,0,0,1,.44-3.69A2.75,2.75,0,0,1,624.09,8.64Z"/><path class="cls-2" d="M623.71,11.37a.79.79,0,0,0-.65.31,1.17,1.17,0,0,0,0,1,.82.82,0,0,0,.68.47.89.89,0,0,0,.83-.44.91.91,0,0,0-.13-1.11A.82.82,0,0,0,623.71,11.37Z"/><polyline class="cls-1" points="928.38 13.84 931 14.33 936.49 15.35 941.75 15.9"/><polyline class="cls-1" points="897.61 12.66 899.98 13.39 904.93 14.91 909.73 15.98"/><polyline class="cls-1" points="866.84 11.48 868.95 12.45 873.38 14.48 877.71 16.06"/><polyline class="cls-1" points="836.07 10.31 837.93 11.51 841.82 14.04 845.69 16.14"/><polyline class="cls-1" points="805.3 9.13 806.9 10.57 810.26 13.6 813.67 16.21"/><polyline class="cls-1" points="774.53 7.95 775.88 9.63 778.71 13.16 781.65 16.29"/><polyline class="cls-1" points="743.76 6.77 744.86 8.7 747.15 12.73 749.63 16.37"/><polyline class="cls-1" points="712.99 5.59 713.83 7.75 715.6 12.29 717.61 16.44"/><polyline class="cls-1" points="682.22 4.41 682.81 6.82 684.04 11.85 685.59 16.52"/><polyline class="cls-1" points="651.45 3.23 651.78 5.88 652.49 11.42 653.57 16.6"/><polyline class="cls-1" points="959.32 13.82 956.69 14.3 951.2 15.31 945.93 15.85"/><polyline class="cls-1" points="926.2 12.65 923.83 13.37 918.86 14.88 914.05 15.93"/><polyline class="cls-1" points="893.09 11.47 890.96 12.43 886.52 14.45 882.17 16.01"/><polyline class="cls-1" points="859.97 10.3 858.1 11.5 854.18 14.01 850.29 16.1"/><polyline class="cls-1" points="826.86 9.12 825.24 10.56 821.84 13.58 818.41 16.18"/><polyline class="cls-1" points="793.74 7.95 792.37 9.63 789.5 13.15 786.53 16.26"/><polyline class="cls-1" points="760.63 6.77 759.51 8.69 757.16 12.71 754.65 16.34"/><polyline class="cls-1" points="727.51 5.59 726.64 7.75 724.83 12.28 722.77 16.42"/><polyline class="cls-1" points="694.4 4.42 693.78 6.82 692.49 11.85 690.89 16.5"/><polyline class="cls-1" points="661.28 3.24 660.91 5.88 660.15 11.41 659 16.58"/><polyline class="cls-1" points="942.5 27.96 942.37 35.17 942.26 42.29"/><polyline class="cls-1" points="945.46 27.96 945.32 35.17 945.21 42.29"/><polyline class="cls-1" points="910.52 27.96 910.38 35.17 910.28 42.29"/><polyline class="cls-1" points="913.47 27.96 913.33 35.17 913.23 42.29"/><polyline class="cls-1" points="878.53 27.96 878.39 35.17 878.29 42.29"/><polyline class="cls-1" points="881.48 27.96 881.35 35.17 881.24 42.29"/><polyline class="cls-1" points="846.55 27.96 846.41 35.17 846.31 42.29"/><polyline class="cls-1" points="849.5 27.96 849.36 35.17 849.26 42.29"/><polyline class="cls-1" points="814.56 27.96 814.42 35.17 814.32 42.29"/><polyline class="cls-1" points="817.51 27.96 817.37 35.17 817.27 42.29"/><polyline class="cls-1" points="782.58 27.96 782.44 35.17 782.34 42.29"/><polyline class="cls-1" points="785.53 27.96 785.39 35.17 785.28 42.29"/><polyline class="cls-1" points="750.59 27.96 750.45 35.17 750.35 42.29"/><polyline class="cls-1" points="753.54 27.96 753.4 35.17 753.3 42.29"/><polyline class="cls-1" points="718.61 27.96 718.47 35.17 718.36 42.29"/><polyline class="cls-1" points="721.56 27.96 721.42 35.17 721.31 42.29"/><polyline class="cls-1" points="686.62 27.96 686.48 35.17 686.38 42.29"/><polyline class="cls-1" points="689.57 27.96 689.43 35.17 689.33 42.29"/><polyline class="cls-1" points="654.63 27.96 654.49 35.17 654.39 42.29"/><polyline class="cls-1" points="657.58 27.96 657.44 35.17 657.34 42.29"/><path class="cls-2" d="M943.9,14.62c-.94,0-1.65.5-2.56,2.44-1.19,2.53-1.75,7.74.44,10.27a3,3,0,0,0,4.12,0c2.91-2.5,1.66-8.23.66-10.35S944.86,14.62,943.9,14.62Z"/><line class="cls-3" x1="944.16" y1="23.73" x2="943.72" y2="23.73"/><path class="cls-2" d="M943.64,8.64a2.62,2.62,0,0,0-2.16,1,3.91,3.91,0,0,0-.12,3.37,2.73,2.73,0,0,0,2.28,1.56,3,3,0,0,0,2.78-1.47A3,3,0,0,0,946,9.46,2.75,2.75,0,0,0,943.64,8.64Z"/><path class="cls-2" d="M944,11.37a.79.79,0,0,1,.65.31,1.17,1.17,0,0,1,0,1,.82.82,0,0,1-.68.47.89.89,0,0,1-.83-.44.91.91,0,0,1,.13-1.11A.82.82,0,0,1,944,11.37Z"/><path class="cls-2" d="M911.93,14.62c-.94,0-1.67.47-2.58,2.41-1.19,2.53-1.75,7.77.44,10.3a3,3,0,0,0,4.15,0c2.91-2.5,1.66-8.26.66-10.39S912.89,14.62,911.93,14.62Z"/><line class="cls-3" x1="912.19" y1="23.73" x2="911.75" y2="23.73"/><path class="cls-2" d="M911.67,8.64a2.62,2.62,0,0,0-2.16,1,3.91,3.91,0,0,0-.12,3.37,2.73,2.73,0,0,0,2.28,1.56,3,3,0,0,0,2.78-1.47A3,3,0,0,0,914,9.46,2.75,2.75,0,0,0,911.67,8.64Z"/><path class="cls-2" d="M912.05,11.37a.79.79,0,0,1,.65.31,1.17,1.17,0,0,1,0,1,.82.82,0,0,1-.68.47.89.89,0,0,1-.83-.44.91.91,0,0,1,.13-1.11A.82.82,0,0,1,912.05,11.37Z"/><path class="cls-2" d="M880,14.62c-.94,0-1.68.43-2.59,2.37-1.19,2.53-1.75,7.8.44,10.34a3,3,0,0,0,4.18,0c2.91-2.5,1.66-8.29.66-10.42S880.92,14.62,880,14.62Z"/><line class="cls-3" x1="880.22" y1="23.73" x2="879.78" y2="23.73"/><path class="cls-2" d="M879.7,8.64a2.62,2.62,0,0,0-2.16,1,3.91,3.91,0,0,0-.12,3.37,2.73,2.73,0,0,0,2.28,1.56,3,3,0,0,0,2.78-1.47A3,3,0,0,0,882,9.46,2.75,2.75,0,0,0,879.7,8.64Z"/><path class="cls-2" d="M880.08,11.37a.79.79,0,0,1,.65.31,1.17,1.17,0,0,1,0,1,.82.82,0,0,1-.68.47.89.89,0,0,1-.83-.44.91.91,0,0,1,.13-1.11A.82.82,0,0,1,880.08,11.37Z"/><path class="cls-2" d="M848,14.62c-.94,0-1.7.4-2.61,2.34-1.19,2.53-1.75,7.84.44,10.37a3.08,3.08,0,0,0,4.21,0c2.91-2.5,1.66-8.33.66-10.45S849,14.62,848,14.62Z"/><line class="cls-3" x1="848.25" y1="23.73" x2="847.81" y2="23.73"/><path class="cls-2" d="M847.73,8.64a2.62,2.62,0,0,0-2.16,1,3.91,3.91,0,0,0-.12,3.37,2.73,2.73,0,0,0,2.28,1.56,3,3,0,0,0,2.78-1.47,3,3,0,0,0-.44-3.69A2.75,2.75,0,0,0,847.73,8.64Z"/><path class="cls-2" d="M848.11,11.37a.79.79,0,0,1,.65.31,1.17,1.17,0,0,1,0,1,.82.82,0,0,1-.68.47.89.89,0,0,1-.83-.44.91.91,0,0,1,.13-1.11A.82.82,0,0,1,848.11,11.37Z"/><path class="cls-2" d="M816,14.62c-.94,0-1.71.37-2.62,2.31-1.19,2.53-1.75,7.87.44,10.4a3.12,3.12,0,0,0,4.25,0c2.91-2.5,1.66-8.36.66-10.48S817,14.62,816,14.62Z"/><line class="cls-3" x1="816.28" y1="23.73" x2="815.84" y2="23.73"/><path class="cls-2" d="M815.76,8.64a2.62,2.62,0,0,0-2.16,1,3.91,3.91,0,0,0-.12,3.37,2.73,2.73,0,0,0,2.28,1.56,3,3,0,0,0,2.78-1.47,3,3,0,0,0-.44-3.69A2.75,2.75,0,0,0,815.76,8.64Z"/><path class="cls-2" d="M816.14,11.37a.79.79,0,0,1,.65.31,1.17,1.17,0,0,1,0,1,.82.82,0,0,1-.68.47.89.89,0,0,1-.83-.44.91.91,0,0,1,.13-1.11A.82.82,0,0,1,816.14,11.37Z"/><path class="cls-2" d="M784.05,14.62c-.94,0-1.73.34-2.64,2.28-1.19,2.53-1.75,7.9.44,10.43a3.16,3.16,0,0,0,4.28,0c2.91-2.5,1.66-8.39.66-10.51S785,14.62,784.05,14.62Z"/><line class="cls-3" x1="784.31" y1="23.73" x2="783.87" y2="23.73"/><path class="cls-2" d="M783.79,8.64a2.62,2.62,0,0,0-2.16,1,3.91,3.91,0,0,0-.12,3.37,2.73,2.73,0,0,0,2.28,1.56,3,3,0,0,0,2.78-1.47,3,3,0,0,0-.44-3.69A2.75,2.75,0,0,0,783.79,8.64Z"/><path class="cls-2" d="M784.18,11.37a.79.79,0,0,1,.65.31,1.17,1.17,0,0,1,0,1,.82.82,0,0,1-.68.47.89.89,0,0,1-.83-.44.91.91,0,0,1,.13-1.11A.82.82,0,0,1,784.18,11.37Z"/><path class="cls-2" d="M752.08,14.62c-.94,0-1.75.31-2.66,2.25-1.19,2.53-1.75,7.93.44,10.46a3.2,3.2,0,0,0,4.31,0c2.91-2.5,1.66-8.42.66-10.55S753,14.62,752.08,14.62Z"/><line class="cls-3" x1="752.34" y1="23.73" x2="751.9" y2="23.73"/><path class="cls-2" d="M751.82,8.64a2.62,2.62,0,0,0-2.16,1,3.91,3.91,0,0,0-.12,3.37,2.73,2.73,0,0,0,2.28,1.56,3,3,0,0,0,2.78-1.47,3,3,0,0,0-.44-3.69A2.75,2.75,0,0,0,751.82,8.64Z"/><path class="cls-2" d="M752.21,11.37a.79.79,0,0,1,.65.31,1.17,1.17,0,0,1,0,1,.82.82,0,0,1-.68.47.89.89,0,0,1-.83-.44.91.91,0,0,1,.13-1.11A.82.82,0,0,1,752.21,11.37Z"/><path class="cls-2" d="M720.11,14.62c-.94,0-1.76.27-2.67,2.21-1.19,2.53-1.75,8,.44,10.5a3.25,3.25,0,0,0,4.34,0c2.91-2.5,1.66-8.45.66-10.58S721.07,14.62,720.11,14.62Z"/><line class="cls-3" x1="720.37" y1="23.73" x2="719.93" y2="23.73"/><path class="cls-2" d="M719.85,8.64a2.62,2.62,0,0,0-2.16,1,3.91,3.91,0,0,0-.12,3.37,2.73,2.73,0,0,0,2.28,1.56,3,3,0,0,0,2.78-1.47,3,3,0,0,0-.44-3.69A2.75,2.75,0,0,0,719.85,8.64Z"/><path class="cls-2" d="M720.24,11.37a.79.79,0,0,1,.65.31,1.17,1.17,0,0,1,0,1,.82.82,0,0,1-.68.47.89.89,0,0,1-.83-.44.91.91,0,0,1,.13-1.11A.82.82,0,0,1,720.24,11.37Z"/><path class="cls-2" d="M688.14,14.62c-.94,0-1.78.24-2.69,2.18-1.19,2.53-1.75,8,.44,10.53,1,1.14,3.12,1.08,4.37,0,2.91-2.5,1.66-8.49.66-10.61S689.1,14.62,688.14,14.62Z"/><line class="cls-3" x1="688.4" y1="23.73" x2="687.96" y2="23.73"/><path class="cls-2" d="M687.88,8.64a2.62,2.62,0,0,0-2.16,1A3.91,3.91,0,0,0,685.6,13a2.73,2.73,0,0,0,2.28,1.56,3,3,0,0,0,2.78-1.47,3,3,0,0,0-.44-3.69A2.75,2.75,0,0,0,687.88,8.64Z"/><path class="cls-2" d="M688.27,11.37a.79.79,0,0,1,.65.31,1.17,1.17,0,0,1,0,1,.82.82,0,0,1-.68.47.89.89,0,0,1-.83-.44.91.91,0,0,1,.13-1.11A.82.82,0,0,1,688.27,11.37Z"/><path class="cls-2" d="M656.17,14.62c-.94,0-1.79.21-2.7,2.15-1.19,2.53-1.75,8,.44,10.56,1,1.14,3.15,1.08,4.41,0,2.91-2.5,1.66-8.52.66-10.64S657.13,14.62,656.17,14.62Z"/><line class="cls-3" x1="656.43" y1="23.73" x2="655.99" y2="23.73"/><path class="cls-2" d="M655.91,8.64a2.62,2.62,0,0,0-2.16,1,3.91,3.91,0,0,0-.12,3.37,2.73,2.73,0,0,0,2.28,1.56,3,3,0,0,0,2.78-1.47,3,3,0,0,0-.44-3.69A2.75,2.75,0,0,0,655.91,8.64Z"/><path class="cls-2" d="M656.3,11.37a.79.79,0,0,1,.65.31,1.17,1.17,0,0,1,0,1,.82.82,0,0,1-.68.47.89.89,0,0,1-.83-.44.91.91,0,0,1,.13-1.11A.82.82,0,0,1,656.3,11.37Z"/><polyline class="cls-1" points="1262.5 27.96 1262.36 35.17 1262.26 42.29"/><polyline class="cls-1" points="1265.45 27.96 1265.31 35.17 1265.21 42.29"/><polyline class="cls-1" points="1230.5 27.96 1230.36 35.17 1230.26 42.29"/><polyline class="cls-1" points="1233.45 27.96 1233.31 35.17 1233.21 42.29"/><polyline class="cls-1" points="1198.49 27.96 1198.36 35.17 1198.25 42.29"/><polyline class="cls-1" points="1201.45 27.96 1201.31 35.17 1201.2 42.29"/><polyline class="cls-1" points="1166.49 27.96 1166.35 35.17 1166.25 42.29"/><polyline class="cls-1" points="1169.44 27.96 1169.3 35.17 1169.2 42.29"/><polyline class="cls-1" points="1134.49 27.96 1134.35 35.17 1134.25 42.29"/><polyline class="cls-1" points="1137.44 27.96 1137.3 35.17 1137.2 42.29"/><polyline class="cls-1" points="1102.49 27.96 1102.35 35.17 1102.24 42.29"/><polyline class="cls-1" points="1105.44 27.96 1105.3 35.17 1105.19 42.29"/><polyline class="cls-1" points="1070.48 27.96 1070.34 35.17 1070.24 42.29"/><polyline class="cls-1" points="1073.43 27.96 1073.29 35.17 1073.19 42.29"/><polyline class="cls-1" points="1038.48 27.96 1038.34 35.17 1038.24 42.29"/><polyline class="cls-1" points="1041.43 27.96 1041.29 35.17 1041.19 42.29"/><polyline class="cls-1" points="1006.48 27.96 1006.34 35.17 1006.23 42.29"/><polyline class="cls-1" points="1009.43 27.96 1009.29 35.17 1009.18 42.29"/><polyline class="cls-1" points="974.47 27.96 974.33 35.17 974.23 42.29"/><polyline class="cls-1" points="977.42 27.96 977.28 35.17 977.18 42.29"/><polyline class="cls-1" points="1258.31 28.67 1258.99 26.09 1260.41 20.69 1262.15 15.69"/><polyline class="cls-1" points="1225.19 27.23 1226.09 24.93 1227.97 20.11 1230.11 15.7"/><polyline class="cls-1" points="1192.07 25.79 1193.19 23.77 1195.53 19.53 1198.06 15.7"/><polyline class="cls-1" points="1158.95 24.35 1160.29 22.61 1163.1 18.95 1166.02 15.7"/><polyline class="cls-1" points="1125.83 22.91 1127.39 21.44 1130.66 18.37 1133.98 15.71"/><polyline class="cls-1" points="1092.71 21.47 1094.49 20.28 1098.22 17.79 1101.93 15.71"/><polyline class="cls-1" points="1059.59 20.03 1061.59 19.12 1065.78 17.21 1069.89 15.71"/><polyline class="cls-1" points="1026.47 18.59 1028.69 17.96 1033.35 16.63 1037.85 15.71"/><polyline class="cls-1" points="993.35 17.16 995.79 16.8 1000.91 16.05 1005.8 15.72"/><polyline class="cls-1" points="960.23 15.72 962.89 15.63 968.47 15.46 973.76 15.72"/><polyline class="cls-1" points="1269.97 28.67 1269.3 26.09 1267.88 20.69 1266.13 15.69"/><polyline class="cls-1" points="1239.02 27.16 1238.12 24.87 1236.24 20.07 1234.1 15.67"/><polyline class="cls-1" points="1208.07 25.66 1206.95 23.65 1204.6 19.45 1202.07 15.65"/><polyline class="cls-1" points="1177.11 24.15 1175.77 22.43 1172.97 18.82 1170.04 15.62"/><polyline class="cls-1" points="1146.16 22.65 1144.6 21.21 1141.33 18.2 1138.01 15.6"/><polyline class="cls-1" points="1115.21 21.14 1113.42 19.99 1109.69 17.58 1105.98 15.58"/><polyline class="cls-1" points="1084.25 19.64 1082.25 18.77 1078.05 16.96 1073.95 15.55"/><polyline class="cls-1" points="1053.3 18.13 1051.07 17.55 1046.42 16.33 1041.92 15.53"/><polyline class="cls-1" points="1022.34 16.63 1019.9 16.33 1014.78 15.71 1009.89 15.51"/><polyline class="cls-1" points="991.39 15.12 988.72 15.11 983.14 15.09 977.86 15.49"/><path class="cls-2" d="M1264,14.62c-.94,0-1.65.93-2.56,2.87-1.19,2.53-1.6,7.31.59,9.84a2.62,2.62,0,0,0,3.83,0c2.91-2.5,1.81-7.8.81-9.92S1265,14.62,1264,14.62Z"/><line class="cls-3" x1="1264.3" y1="23.73" x2="1263.86" y2="23.73"/><path class="cls-2" d="M1263.78,8.64a2.62,2.62,0,0,0-2.16,1,3.91,3.91,0,0,0-.12,3.37,2.73,2.73,0,0,0,2.28,1.56,3,3,0,0,0,2.78-1.47,3,3,0,0,0-.44-3.69A2.75,2.75,0,0,0,1263.78,8.64Z"/><path class="cls-2" d="M1264.16,11.37a.79.79,0,0,1,.65.31,1.17,1.17,0,0,1,0,1,.82.82,0,0,1-.68.47.89.89,0,0,1-.83-.44.91.91,0,0,1,.13-1.11A.82.82,0,0,1,1264.16,11.37Z"/><path class="cls-2" d="M1232,14.62c-.94,0-1.65.88-2.56,2.82-1.19,2.53-1.62,7.36.57,9.89a2.65,2.65,0,0,0,3.86,0c2.91-2.5,1.79-7.85.79-10S1233,14.62,1232,14.62Z"/><line class="cls-3" x1="1232.28" y1="23.73" x2="1231.84" y2="23.73"/><path class="cls-2" d="M1231.76,8.64a2.62,2.62,0,0,0-2.16,1,3.91,3.91,0,0,0-.12,3.37,2.73,2.73,0,0,0,2.28,1.56,3,3,0,0,0,2.78-1.47,3,3,0,0,0-.44-3.69A2.75,2.75,0,0,0,1231.76,8.64Z"/><path class="cls-2" d="M1232.15,11.37a.79.79,0,0,1,.65.31,1.17,1.17,0,0,1,0,1,.82.82,0,0,1-.68.47.89.89,0,0,1-.83-.44.91.91,0,0,1,.13-1.11A.82.82,0,0,1,1232.15,11.37Z"/><path class="cls-2" d="M1200,14.62c-.94,0-1.65.83-2.56,2.77-1.19,2.53-1.63,7.4.55,9.94a2.69,2.69,0,0,0,3.89,0c2.91-2.5,1.78-7.89.78-10S1201,14.62,1200,14.62Z"/><line class="cls-3" x1="1200.26" y1="23.73" x2="1199.82" y2="23.73"/><path class="cls-2" d="M1199.74,8.64a2.62,2.62,0,0,0-2.16,1,3.91,3.91,0,0,0-.12,3.37,2.73,2.73,0,0,0,2.28,1.56,3,3,0,0,0,2.78-1.47,3,3,0,0,0-.44-3.69A2.75,2.75,0,0,0,1199.74,8.64Z"/><path class="cls-2" d="M1200.13,11.37a.79.79,0,0,1,.65.31,1.17,1.17,0,0,1,0,1,.82.82,0,0,1-.68.47.89.89,0,0,1-.83-.44.91.91,0,0,1,.13-1.11A.82.82,0,0,1,1200.13,11.37Z"/><path class="cls-2" d="M1168,14.62c-.94,0-1.65.79-2.56,2.73-1.19,2.53-1.65,7.45.54,10a2.73,2.73,0,0,0,3.93,0c2.91-2.5,1.76-7.94.76-10.07S1168.94,14.62,1168,14.62Z"/><line class="cls-3" x1="1168.24" y1="23.73" x2="1167.8" y2="23.73"/><path class="cls-2" d="M1167.72,8.64a2.62,2.62,0,0,0-2.16,1,3.91,3.91,0,0,0-.12,3.37,2.73,2.73,0,0,0,2.28,1.56,3,3,0,0,0,2.78-1.47,3,3,0,0,0-.44-3.69A2.75,2.75,0,0,0,1167.72,8.64Z"/><path class="cls-2" d="M1168.11,11.37a.79.79,0,0,1,.65.31,1.17,1.17,0,0,1,0,1,.82.82,0,0,1-.68.47.89.89,0,0,1-.83-.44.91.91,0,0,1,.13-1.11A.82.82,0,0,1,1168.11,11.37Z"/><path class="cls-2" d="M1136,14.62c-.94,0-1.65.74-2.56,2.68-1.19,2.53-1.67,7.5.52,10a2.77,2.77,0,0,0,4,0c2.91-2.5,1.74-8,.74-10.11S1136.93,14.62,1136,14.62Z"/><line class="cls-3" x1="1136.22" y1="23.73" x2="1135.78" y2="23.73"/><path class="cls-2" d="M1135.7,8.64a2.62,2.62,0,0,0-2.16,1,3.91,3.91,0,0,0-.12,3.37,2.73,2.73,0,0,0,2.28,1.56,3,3,0,0,0,2.78-1.47,3,3,0,0,0-.44-3.69A2.75,2.75,0,0,0,1135.7,8.64Z"/><path class="cls-2" d="M1136.09,11.37a.79.79,0,0,1,.65.31,1.17,1.17,0,0,1,0,1,.82.82,0,0,1-.68.47.89.89,0,0,1-.83-.44.91.91,0,0,1,.13-1.11A.82.82,0,0,1,1136.09,11.37Z"/><path class="cls-2" d="M1103.95,14.62c-.94,0-1.65.69-2.56,2.63-1.19,2.53-1.68,7.55.51,10.08a2.8,2.8,0,0,0,4,0c2.91-2.5,1.73-8,.73-10.16S1104.91,14.62,1103.95,14.62Z"/><line class="cls-3" x1="1104.2" y1="23.73" x2="1103.76" y2="23.73"/><path class="cls-2" d="M1103.68,8.64a2.62,2.62,0,0,0-2.16,1,3.91,3.91,0,0,0-.12,3.37,2.73,2.73,0,0,0,2.28,1.56,3,3,0,0,0,2.78-1.47,3,3,0,0,0-.44-3.69A2.75,2.75,0,0,0,1103.68,8.64Z"/><path class="cls-2" d="M1104.07,11.37a.79.79,0,0,1,.65.31,1.17,1.17,0,0,1,0,1,.82.82,0,0,1-.68.47.89.89,0,0,1-.83-.44.91.91,0,0,1,.13-1.11A.82.82,0,0,1,1104.07,11.37Z"/><path class="cls-2" d="M1071.93,14.62c-.94,0-1.65.64-2.56,2.58-1.19,2.53-1.7,7.6.49,10.13a2.84,2.84,0,0,0,4,0c2.91-2.5,1.71-8.09.71-10.21S1072.89,14.62,1071.93,14.62Z"/><line class="cls-3" x1="1072.18" y1="23.73" x2="1071.74" y2="23.73"/><path class="cls-2" d="M1071.67,8.64a2.62,2.62,0,0,0-2.16,1,3.91,3.91,0,0,0-.12,3.37,2.73,2.73,0,0,0,2.28,1.56,3,3,0,0,0,2.78-1.47,3,3,0,0,0-.44-3.69A2.75,2.75,0,0,0,1071.67,8.64Z"/><path class="cls-2" d="M1072,11.37a.79.79,0,0,1,.65.31,1.17,1.17,0,0,1,0,1,.82.82,0,0,1-.68.47.89.89,0,0,1-.83-.44.91.91,0,0,1,.13-1.11A.82.82,0,0,1,1072,11.37Z"/><path class="cls-2" d="M1039.91,14.62c-.94,0-1.65.59-2.56,2.53-1.19,2.53-1.71,7.64.47,10.18a2.88,2.88,0,0,0,4.05,0c2.91-2.5,1.7-8.13.7-10.26S1040.87,14.62,1039.91,14.62Z"/><line class="cls-3" x1="1040.16" y1="23.73" x2="1039.72" y2="23.73"/><path class="cls-2" d="M1039.65,8.64a2.62,2.62,0,0,0-2.16,1,3.91,3.91,0,0,0-.12,3.37,2.73,2.73,0,0,0,2.28,1.56,3,3,0,0,0,2.78-1.47,3,3,0,0,0-.44-3.69A2.75,2.75,0,0,0,1039.65,8.64Z"/><path class="cls-2" d="M1040,11.37a.79.79,0,0,1,.65.31,1.17,1.17,0,0,1,0,1,.82.82,0,0,1-.68.47.89.89,0,0,1-.83-.44.91.91,0,0,1,.13-1.11A.82.82,0,0,1,1040,11.37Z"/><path class="cls-2" d="M1007.89,14.62c-.94,0-1.65.55-2.56,2.49-1.19,2.53-1.73,7.69.46,10.22a2.92,2.92,0,0,0,4.09,0c2.91-2.5,1.68-8.18.68-10.31S1008.85,14.62,1007.89,14.62Z"/><line class="cls-3" x1="1008.14" y1="23.73" x2="1007.7" y2="23.73"/><path class="cls-2" d="M1007.63,8.64a2.62,2.62,0,0,0-2.16,1,3.91,3.91,0,0,0-.12,3.37,2.73,2.73,0,0,0,2.28,1.56,3,3,0,0,0,2.78-1.47,3,3,0,0,0-.44-3.69A2.75,2.75,0,0,0,1007.63,8.64Z"/><path class="cls-2" d="M1008,11.37a.79.79,0,0,1,.65.31,1.17,1.17,0,0,1,0,1,.82.82,0,0,1-.68.47.89.89,0,0,1-.83-.44.91.91,0,0,1,.13-1.11A.82.82,0,0,1,1008,11.37Z"/><path class="cls-2" d="M975.87,14.62c-.94,0-1.65.5-2.56,2.44-1.19,2.53-1.75,7.74.44,10.27a3,3,0,0,0,4.12,0c2.91-2.5,1.66-8.23.66-10.35S976.83,14.62,975.87,14.62Z"/><line class="cls-3" x1="976.12" y1="23.73" x2="975.68" y2="23.73"/><path class="cls-2" d="M975.61,8.64a2.62,2.62,0,0,0-2.16,1,3.91,3.91,0,0,0-.12,3.37,2.73,2.73,0,0,0,2.28,1.56,3,3,0,0,0,2.78-1.47A3,3,0,0,0,978,9.46,2.75,2.75,0,0,0,975.61,8.64Z"/><path class="cls-2" d="M976,11.37a.79.79,0,0,1,.65.31,1.17,1.17,0,0,1,0,1,.82.82,0,0,1-.68.47.89.89,0,0,1-.83-.44.91.91,0,0,1,.13-1.11A.82.82,0,0,1,976,11.37Z"/></g></svg>